<svg width="131" height="34" viewBox="0 0 131 34" fill="none" xmlns="http://www.w3.org/2000/svg">
<g opacity="0.35">
<path d="M2.88935 23.5142V30.0132H2.04084V23.5142H2.88935ZM9.44516 30.0132H8.59665L5.18398 24.8382V30.0132H4.33548V23.5049H5.18398L8.59665 28.6705V23.5049H9.44516V30.0132ZM10.5746 26.759C10.5746 26.125 10.7175 25.5562 11.0035 25.0527C11.2894 24.543 11.6779 24.1451 12.169 23.8592C12.6663 23.5732 13.2164 23.4303 13.8194 23.4303C14.528 23.4303 15.1465 23.6012 15.6749 23.9431C16.2033 24.285 16.5887 24.7699 16.8311 25.3977H15.8148C15.6345 25.0061 15.3734 24.7046 15.0315 24.4932C14.6959 24.2819 14.2918 24.1762 13.8194 24.1762C13.3656 24.1762 12.9585 24.2819 12.5979 24.4932C12.2374 24.7046 11.9545 25.0061 11.7494 25.3977C11.5443 25.7831 11.4417 26.2369 11.4417 26.759C11.4417 27.275 11.5443 27.7287 11.7494 28.1204C11.9545 28.5058 12.2374 28.8041 12.5979 29.0155C12.9585 29.2268 13.3656 29.3325 13.8194 29.3325C14.2918 29.3325 14.6959 29.2299 15.0315 29.0248C15.3734 28.8135 15.6345 28.512 15.8148 28.1204H16.8311C16.5887 28.742 16.2033 29.2237 15.6749 29.5656C15.1465 29.9013 14.528 30.0691 13.8194 30.0691C13.2164 30.0691 12.6663 29.9293 12.169 29.6495C11.6779 29.3636 11.2894 28.9689 11.0035 28.4654C10.7175 27.9619 10.5746 27.3931 10.5746 26.759ZM21.0406 30.0785C20.4377 30.0785 19.8875 29.9386 19.3903 29.6589C18.893 29.3729 18.4982 28.9782 18.2061 28.4747C17.9201 27.965 17.7772 27.3931 17.7772 26.759C17.7772 26.125 17.9201 25.5562 18.2061 25.0527C18.4982 24.543 18.893 24.1482 19.3903 23.8685C19.8875 23.5826 20.4377 23.4396 21.0406 23.4396C21.6498 23.4396 22.2031 23.5826 22.7004 23.8685C23.1977 24.1482 23.5893 24.5399 23.8752 25.0434C24.1612 25.5469 24.3041 26.1188 24.3041 26.759C24.3041 27.3993 24.1612 27.9712 23.8752 28.4747C23.5893 28.9782 23.1977 29.3729 22.7004 29.6589C22.2031 29.9386 21.6498 30.0785 21.0406 30.0785ZM21.0406 29.3418C21.4944 29.3418 21.9016 29.2362 22.2621 29.0248C22.6289 28.8135 22.9148 28.512 23.12 28.1204C23.3313 27.7287 23.437 27.275 23.437 26.759C23.437 26.2369 23.3313 25.7831 23.12 25.3977C22.9148 25.0061 22.632 24.7046 22.2714 24.4932C21.9109 24.2819 21.5006 24.1762 21.0406 24.1762C20.5807 24.1762 20.1704 24.2819 19.8098 24.4932C19.4493 24.7046 19.1634 25.0061 18.952 25.3977C18.7469 25.7831 18.6443 26.2369 18.6443 26.759C18.6443 27.275 18.7469 27.7287 18.952 28.1204C19.1634 28.512 19.4493 28.8135 19.8098 29.0248C20.1766 29.2362 20.5869 29.3418 21.0406 29.3418ZM32.0165 23.5608V30.0132H31.168V25.2019L29.0234 30.0132H28.4267L26.2728 25.1926V30.0132H25.4243V23.5608H26.338L28.7251 28.8943L31.1121 23.5608H32.0165ZM34.304 23.5142V30.0132H33.4555V23.5142H34.304ZM40.8598 30.0132H40.0113L36.5986 24.8382V30.0132H35.7501V23.5049H36.5986L40.0113 28.6705V23.5049H40.8598V30.0132ZM47.2294 25.3977C47.0492 25.0185 46.7881 24.7263 46.4462 24.5212C46.1043 24.3099 45.7065 24.2042 45.2527 24.2042C44.7989 24.2042 44.3887 24.3099 44.0219 24.5212C43.6614 24.7263 43.3754 25.0247 43.1641 25.4163C42.9589 25.8017 42.8564 26.2493 42.8564 26.759C42.8564 27.2688 42.9589 27.7163 43.1641 28.1017C43.3754 28.4871 43.6614 28.7855 44.0219 28.9968C44.3887 29.202 44.7989 29.3045 45.2527 29.3045C45.8867 29.3045 46.4089 29.1149 46.8192 28.7358C47.2294 28.3566 47.4688 27.8437 47.5371 27.1973H44.945V26.5073H48.4416V27.16C48.3919 27.6946 48.224 28.1856 47.9381 28.6332C47.6521 29.0745 47.2761 29.4258 46.8098 29.6868C46.3436 29.9417 45.8246 30.0691 45.2527 30.0691C44.6497 30.0691 44.0996 29.9293 43.6023 29.6495C43.105 29.3636 42.7103 28.9689 42.4181 28.4654C42.1322 27.9619 41.9892 27.3931 41.9892 26.759C41.9892 26.125 42.1322 25.5562 42.4181 25.0527C42.7103 24.543 43.105 24.1482 43.6023 23.8685C44.0996 23.5826 44.6497 23.4396 45.2527 23.4396C45.9427 23.4396 46.5519 23.6105 47.0802 23.9524C47.6148 24.2943 48.0033 24.7761 48.2458 25.3977H47.2294ZM55.7231 23.5142V24.2042H52.8978V26.3954H55.1916V27.0854H52.8978V30.0132H52.0493V23.5142H55.7231ZM60.1699 30.0132L58.622 27.3558H57.5964V30.0132H56.7479V23.5142H58.8458C59.3369 23.5142 59.7503 23.5981 60.086 23.7659C60.4278 23.9338 60.6827 24.1607 60.8505 24.4466C61.0184 24.7326 61.1023 25.0589 61.1023 25.4257C61.1023 25.8732 60.9718 26.2679 60.7107 26.6098C60.4558 26.9517 60.0704 27.1786 59.5545 27.2905L61.1862 30.0132H60.1699ZM57.5964 26.6751H58.8458C59.3058 26.6751 59.6508 26.5632 59.8808 26.3394C60.1108 26.1094 60.2258 25.8048 60.2258 25.4257C60.2258 25.0403 60.1108 24.7419 59.8808 24.5305C59.657 24.3192 59.312 24.2135 58.8458 24.2135H57.5964V26.6751ZM65.3672 30.0785C64.7642 30.0785 64.2141 29.9386 63.7168 29.6589C63.2195 29.3729 62.8248 28.9782 62.5326 28.4747C62.2467 27.965 62.1037 27.3931 62.1037 26.759C62.1037 26.125 62.2467 25.5562 62.5326 25.0527C62.8248 24.543 63.2195 24.1482 63.7168 23.8685C64.2141 23.5826 64.7642 23.4396 65.3672 23.4396C65.9764 23.4396 66.5296 23.5826 67.0269 23.8685C67.5242 24.1482 67.9158 24.5399 68.2018 25.0434C68.4877 25.5469 68.6307 26.1188 68.6307 26.759C68.6307 27.3993 68.4877 27.9712 68.2018 28.4747C67.9158 28.9782 67.5242 29.3729 67.0269 29.6589C66.5296 29.9386 65.9764 30.0785 65.3672 30.0785ZM65.3672 29.3418C65.821 29.3418 66.2281 29.2362 66.5887 29.0248C66.9554 28.8135 67.2414 28.512 67.4465 28.1204C67.6578 27.7287 67.7635 27.275 67.7635 26.759C67.7635 26.2369 67.6578 25.7831 67.4465 25.3977C67.2414 25.0061 66.9585 24.7046 66.598 24.4932C66.2374 24.2819 65.8272 24.1762 65.3672 24.1762C64.9072 24.1762 64.4969 24.2819 64.1364 24.4932C63.7759 24.7046 63.4899 25.0061 63.2786 25.3977C63.0734 25.7831 62.9709 26.2369 62.9709 26.759C62.9709 27.275 63.0734 27.7287 63.2786 28.1204C63.4899 28.512 63.7759 28.8135 64.1364 29.0248C64.5031 29.2362 64.9134 29.3418 65.3672 29.3418ZM76.3431 23.5608V30.0132H75.4945V25.2019L73.35 30.0132H72.7532L70.5993 25.1926V30.0132H69.7508V23.5608H70.6646L73.0516 28.8943L75.4386 23.5608H76.3431ZM84.268 23.5142V24.2042H82.4964V30.0132H81.6479V24.2042H79.867V23.5142H84.268ZM90.3196 23.5142V30.0132H89.4711V27.0667H86.161V30.0132H85.3125V23.5142H86.161V26.3674H89.4711V23.5142H90.3196ZM92.6169 24.2042V26.3767H94.9853V27.076H92.6169V29.3139H95.265V30.0132H91.7684V23.5049H95.265V24.2042H92.6169ZM102.708 23.5142V24.2042H99.8832V26.3954H102.177V27.0854H99.8832V30.0132H99.0347V23.5142H102.708ZM104.563 23.5142V27.6262C104.563 28.2043 104.703 28.6332 104.983 28.9129C105.269 29.1927 105.663 29.3325 106.167 29.3325C106.664 29.3325 107.053 29.1927 107.332 28.9129C107.618 28.6332 107.761 28.2043 107.761 27.6262V23.5142H108.61V27.6169C108.61 28.1577 108.501 28.6145 108.284 28.9875C108.066 29.3543 107.771 29.6278 107.398 29.8081C107.031 29.9883 106.618 30.0785 106.158 30.0785C105.698 30.0785 105.281 29.9883 104.908 29.8081C104.541 29.6278 104.249 29.3543 104.032 28.9875C103.82 28.6145 103.715 28.1577 103.715 27.6169V23.5142H104.563ZM114.025 23.5142V24.2042H112.254V30.0132H111.405V24.2042H109.624V23.5142H114.025ZM115.9 23.5142V27.6262C115.9 28.2043 116.04 28.6332 116.319 28.9129C116.605 29.1927 117 29.3325 117.503 29.3325C118.001 29.3325 118.389 29.1927 118.669 28.9129C118.955 28.6332 119.098 28.2043 119.098 27.6262V23.5142H119.946V27.6169C119.946 28.1577 119.838 28.6145 119.62 28.9875C119.403 29.3543 119.107 29.6278 118.734 29.8081C118.368 29.9883 117.954 30.0785 117.494 30.0785C117.034 30.0785 116.618 29.9883 116.245 29.8081C115.878 29.6278 115.586 29.3543 115.368 28.9875C115.157 28.6145 115.051 28.1577 115.051 27.6169V23.5142H115.9ZM124.784 30.0132L123.236 27.3558H122.21V30.0132H121.362V23.5142H123.46C123.951 23.5142 124.364 23.5981 124.7 23.7659C125.042 23.9338 125.297 24.1607 125.465 24.4466C125.632 24.7326 125.716 25.0589 125.716 25.4257C125.716 25.8732 125.586 26.2679 125.325 26.6098C125.07 26.9517 124.684 27.1786 124.169 27.2905L125.8 30.0132H124.784ZM122.21 26.6751H123.46C123.92 26.6751 124.265 26.5632 124.495 26.3394C124.725 26.1094 124.84 25.8048 124.84 25.4257C124.84 25.0403 124.725 24.7419 124.495 24.5305C124.271 24.3192 123.926 24.2135 123.46 24.2135H122.21V26.6751ZM127.883 24.2042V26.3767H130.252V27.076H127.883V29.3139H130.531V30.0132H127.035V23.5049H130.531V24.2042H127.883Z" fill="#FAFAFA"/>
</g>
<path d="M1.23816 13.9558V0.996469H9.1457V3.4094H4.2385V6.34648H9.1457V8.69615H4.2385V11.5519H9.1457V13.9558H1.23816Z" fill="#FAFAFA"/>
<path d="M9.86289 9.49142C9.86289 8.87689 9.9623 8.28646 10.1611 7.72013C10.366 7.1538 10.6702 6.65375 11.0739 6.21996C11.4836 5.78618 11.9866 5.43975 12.5831 5.18069C13.1856 4.92162 13.8754 4.79209 14.6526 4.79209C15.4057 4.79209 16.0594 4.89752 16.6137 5.10839C17.1679 5.31926 17.6319 5.59941 18.0054 5.94885C18.385 6.29226 18.6772 6.6899 18.882 7.14175C19.0868 7.58759 19.2134 8.0515 19.2616 8.53348H16.4329C16.3727 8.13584 16.207 7.81352 15.9359 7.5665C15.6708 7.31949 15.249 7.19598 14.6707 7.19598C14.3393 7.19598 14.0471 7.25924 13.7941 7.38576C13.541 7.50625 13.3332 7.67194 13.1705 7.8828C13.0139 8.09367 12.8934 8.33767 12.809 8.61482C12.7307 8.89196 12.6915 9.18416 12.6915 9.49142C12.6915 9.79869 12.7307 10.0939 12.809 10.3771C12.8934 10.6542 13.0169 10.8982 13.1795 11.1091C13.3482 11.3139 13.5651 11.4796 13.8302 11.6061C14.0953 11.7266 14.4116 11.7869 14.7791 11.7869C15.2731 11.7869 15.6437 11.6875 15.8907 11.4886C16.1377 11.2838 16.3245 10.9886 16.451 10.603H19.2796C19.2073 11.1091 19.0597 11.582 18.8368 12.0218C18.6139 12.4616 18.3096 12.8412 17.9241 13.1605C17.5445 13.4798 17.0806 13.7329 16.5323 13.9196C15.9841 14.1064 15.3575 14.1998 14.6526 14.1998C13.8754 14.1998 13.1856 14.0703 12.5831 13.8112C11.9866 13.5521 11.4836 13.2057 11.0739 12.7719C10.6702 12.3381 10.366 11.8381 10.1611 11.2717C9.9623 10.7054 9.86289 10.112 9.86289 9.49142Z" fill="#FAFAFA"/>
<path d="M20.0782 13.9558V5.03609H22.8164V6.32841C23.0152 5.90667 23.3346 5.5482 23.7744 5.25298C24.2202 4.95777 24.7594 4.81016 25.392 4.81016C26.1692 4.81016 26.7657 4.96681 27.1814 5.28009C27.6031 5.58736 27.9074 5.96692 28.0941 6.41878C28.3291 5.94885 28.6876 5.56326 29.1696 5.26202C29.6515 4.96078 30.2239 4.81016 30.8866 4.81016C31.5253 4.81016 32.0494 4.91258 32.4591 5.11743C32.8688 5.32227 33.1911 5.5964 33.4261 5.93981C33.661 6.2772 33.8177 6.6658 33.896 7.10561C33.9743 7.53939 34.0135 7.99125 34.0135 8.46118V13.9558H31.2933V9.14801C31.2933 8.54553 31.1849 8.0756 30.968 7.73821C30.7571 7.3948 30.4107 7.22309 29.9287 7.22309C29.7178 7.22309 29.519 7.25924 29.3322 7.33154C29.1455 7.40383 28.9828 7.52734 28.8442 7.70206C28.7117 7.87075 28.6093 8.10271 28.537 8.39792C28.4647 8.68711 28.4285 9.04559 28.4285 9.47335V13.9558H25.6902V9.1209C25.6902 8.51842 25.5848 8.0515 25.3739 7.72013C25.1631 7.38877 24.8227 7.22309 24.3527 7.22309C24.1298 7.22309 23.925 7.25924 23.7382 7.33154C23.5575 7.40383 23.3978 7.53035 23.2592 7.7111C23.1267 7.88582 23.0183 8.12379 22.9339 8.42503C22.8556 8.72025 22.8164 9.09077 22.8164 9.53661V13.9558H20.0782Z" fill="#FAFAFA"/>
<path d="M34.7578 9.49142C34.7578 8.82267 34.8602 8.20212 35.0651 7.62976C35.2759 7.05741 35.5711 6.56639 35.9507 6.1567C36.3363 5.74099 36.7972 5.41264 37.3334 5.17165C37.8696 4.93066 38.46 4.81016 39.1047 4.81016C39.3878 4.81016 39.671 4.85233 39.9542 4.93668C40.2373 5.015 40.4994 5.12345 40.7404 5.26202C40.9814 5.39457 41.1953 5.55422 41.3821 5.74099C41.5688 5.92173 41.7164 6.11152 41.8249 6.31033V5.03609H44.6535V13.9558H41.8249V12.6996C41.7164 12.9105 41.5688 13.1063 41.3821 13.287C41.1953 13.4618 40.9814 13.6154 40.7404 13.7479C40.4994 13.8745 40.2373 13.9769 39.9542 14.0552C39.671 14.1395 39.3878 14.1817 39.1047 14.1817C38.4661 14.1817 37.8756 14.0612 37.3334 13.8202C36.7972 13.5792 36.3363 13.2509 35.9507 12.8352C35.5711 12.4195 35.2759 11.9254 35.0651 11.3531C34.8602 10.7807 34.7578 10.1602 34.7578 9.49142ZM37.5684 9.49142C37.5684 9.79869 37.6196 10.0939 37.722 10.3771C37.8304 10.6542 37.975 10.8952 38.1558 11.1C38.3425 11.2989 38.5655 11.4615 38.8245 11.588C39.0836 11.7085 39.3728 11.7688 39.6921 11.7688C40.0114 11.7688 40.3006 11.7085 40.5597 11.588C40.8248 11.4615 41.0477 11.2989 41.2284 11.1C41.4152 10.8952 41.5598 10.6542 41.6622 10.3771C41.7707 10.0999 41.8249 9.80471 41.8249 9.49142C41.8249 9.18416 41.7707 8.89497 41.6622 8.62385C41.5598 8.35274 41.4152 8.11175 41.2284 7.90088C41.0477 7.69001 40.8278 7.52433 40.5687 7.40383C40.3096 7.28334 40.0174 7.22309 39.6921 7.22309C39.3728 7.22309 39.0836 7.28334 38.8245 7.40383C38.5655 7.52433 38.3425 7.69001 38.1558 7.90088C37.975 8.11175 37.8304 8.35274 37.722 8.62385C37.6196 8.89497 37.5684 9.18416 37.5684 9.49142Z" fill="#FAFAFA"/>
<path d="M45.5424 9.66313H48.5428C48.5428 10.368 48.7325 10.9193 49.1121 11.3169C49.4977 11.7085 49.9977 11.9044 50.6123 11.9044C51.0943 11.9044 51.4979 11.7658 51.8233 11.4886C52.1486 11.2115 52.3113 10.844 52.3113 10.3861C52.3113 10.127 52.2601 9.90713 52.1576 9.72639C52.0552 9.54565 51.9136 9.389 51.7329 9.25646C51.5521 9.11789 51.3383 8.99739 51.0912 8.89497C50.8442 8.78652 50.5791 8.67808 50.296 8.56963C49.7055 8.34671 49.1422 8.12379 48.606 7.90088C48.0698 7.67796 47.6029 7.40986 47.2053 7.09657C46.8136 6.78328 46.5004 6.40673 46.2654 5.96692C46.0304 5.52109 45.9129 4.96982 45.9129 4.31312C45.9129 3.72269 46.0395 3.19853 46.2925 2.74065C46.5455 2.28276 46.8799 1.90019 47.2956 1.59292C47.7174 1.28566 48.2024 1.05672 48.7506 0.906097C49.2989 0.749453 49.8712 0.671131 50.4677 0.671131C51.2328 0.671131 51.9046 0.782589 52.483 1.00551C53.0613 1.2224 53.5403 1.52364 53.9199 1.90922C54.3055 2.28879 54.5947 2.72558 54.7875 3.21962C54.9802 3.71365 55.0766 4.23781 55.0766 4.79209H52.0763C52.0763 4.21371 51.9377 3.75884 51.6606 3.42747C51.3834 3.09008 50.9858 2.92139 50.4677 2.92139C50.0339 2.92139 49.6634 3.03285 49.3561 3.25577C49.0488 3.47868 48.8952 3.81306 48.8952 4.25889C48.8952 4.69268 49.0639 5.03609 49.4013 5.28913C49.7387 5.53615 50.1845 5.75907 50.7388 5.95788C51.269 6.14465 51.8052 6.34648 52.3474 6.56337C52.8957 6.78027 53.3837 7.04536 53.8114 7.35865C54.2452 7.67194 54.6007 8.05451 54.8778 8.50637C55.155 8.95823 55.2935 9.50347 55.2935 10.1421C55.2935 10.8109 55.173 11.4043 54.932 11.9224C54.6911 12.4406 54.3537 12.8743 53.9199 13.2238C53.4921 13.5732 52.98 13.8383 52.3836 14.0191C51.7931 14.1998 51.1394 14.2902 50.4225 14.2902C49.7296 14.2902 49.085 14.1877 48.4885 13.9829C47.8921 13.7781 47.3739 13.4798 46.9341 13.0882C46.5004 12.6906 46.16 12.2056 45.9129 11.6332C45.6659 11.0609 45.5424 10.4042 45.5424 9.66313Z" fill="#FAFAFA"/>
<path d="M55.6583 9.49142C55.6583 8.87689 55.7577 8.28646 55.9565 7.72013C56.1613 7.1538 56.4656 6.65375 56.8693 6.21996C57.2789 5.78618 57.782 5.43975 58.3785 5.18069C58.9809 4.92162 59.6708 4.79209 60.448 4.79209C61.2011 4.79209 61.8548 4.89752 62.409 5.10839C62.9633 5.31926 63.4272 5.59941 63.8008 5.94885C64.1803 6.29226 64.4725 6.6899 64.6774 7.14175C64.8822 7.58759 65.0087 8.0515 65.0569 8.53348H62.2283C62.1681 8.13584 62.0024 7.81352 61.7313 7.5665C61.4662 7.31949 61.0444 7.19598 60.4661 7.19598C60.1347 7.19598 59.8425 7.25924 59.5894 7.38576C59.3364 7.50625 59.1286 7.67194 58.9659 7.8828C58.8092 8.09367 58.6887 8.33767 58.6044 8.61482C58.5261 8.89196 58.4869 9.18416 58.4869 9.49142C58.4869 9.79869 58.5261 10.0939 58.6044 10.3771C58.6887 10.6542 58.8123 10.8982 58.9749 11.1091C59.1436 11.3139 59.3605 11.4796 59.6256 11.6061C59.8907 11.7266 60.207 11.7869 60.5745 11.7869C61.0685 11.7869 61.4391 11.6875 61.6861 11.4886C61.9331 11.2838 62.1199 10.9886 62.2464 10.603H65.075C65.0027 11.1091 64.8551 11.582 64.6322 12.0218C64.4093 12.4616 64.105 12.8412 63.7194 13.1605C63.3399 13.4798 62.876 13.7329 62.3277 13.9196C61.7795 14.1064 61.1529 14.1998 60.448 14.1998C59.6708 14.1998 58.9809 14.0703 58.3785 13.8112C57.782 13.5521 57.2789 13.2057 56.8693 12.7719C56.4656 12.3381 56.1613 11.8381 55.9565 11.2717C55.7577 10.7054 55.6583 10.112 55.6583 9.49142Z" fill="#FAFAFA"/>
<path d="M65.8735 13.9558V5.03609H68.7022V6.48204C68.913 6.0603 69.2625 5.68978 69.7505 5.37047C70.2385 5.04513 70.7988 4.88246 71.4314 4.88246C71.7628 4.88246 72.0459 4.93367 72.2809 5.03609V7.61169C72.0821 7.56349 71.9134 7.53035 71.7748 7.51228C71.6423 7.48818 71.4766 7.47613 71.2778 7.47613C70.5006 7.47613 69.877 7.70507 69.4071 8.16296C68.9371 8.62084 68.7022 9.39201 68.7022 10.4765V13.9558H65.8735Z" fill="#FAFAFA"/>
<path d="M72.1667 2.07189C72.1667 1.56581 72.3384 1.14106 72.6818 0.797651C73.0312 0.454238 73.465 0.282532 73.9831 0.282532C74.2422 0.282532 74.4832 0.327718 74.7061 0.418089C74.929 0.508461 75.1218 0.634982 75.2845 0.797651C75.4532 0.954296 75.5827 1.14408 75.6731 1.36699C75.7695 1.58991 75.8177 1.82488 75.8177 2.07189C75.8177 2.31891 75.7695 2.55086 75.6731 2.76776C75.5827 2.98465 75.4532 3.17744 75.2845 3.34614C75.1218 3.50881 74.929 3.63834 74.7061 3.73474C74.4832 3.82511 74.2422 3.87029 73.9831 3.87029C73.7241 3.87029 73.4861 3.82511 73.2692 3.73474C73.0523 3.63834 72.8595 3.50881 72.6908 3.34614C72.5282 3.17744 72.3986 2.98465 72.3022 2.76776C72.2119 2.55086 72.1667 2.31891 72.1667 2.07189ZM72.5733 13.9558V5.03609H75.402V13.9558H72.5733Z" fill="#FAFAFA"/>
<path d="M76.797 17.9864V5.03609H79.6256V6.31033C79.7341 6.11152 79.8817 5.92173 80.0684 5.74099C80.2552 5.55422 80.4721 5.39457 80.7191 5.26202C80.9661 5.12345 81.2282 5.015 81.5053 4.93668C81.7825 4.85233 82.0717 4.81016 82.3729 4.81016C83.0115 4.81016 83.599 4.93066 84.1352 5.17165C84.6714 5.41264 85.1293 5.74099 85.5088 6.1567C85.8944 6.56639 86.1926 7.06042 86.4035 7.6388C86.6144 8.21115 86.7198 8.8287 86.7198 9.49142C86.7198 10.1602 86.6144 10.7807 86.4035 11.3531C86.1926 11.9254 85.8944 12.4195 85.5088 12.8352C85.1293 13.2509 84.6714 13.5792 84.1352 13.8202C83.599 14.0612 83.0115 14.1817 82.3729 14.1817C82.0777 14.1817 81.7885 14.1395 81.5053 14.0552C81.2282 13.9769 80.9661 13.8714 80.7191 13.7389C80.4721 13.6003 80.2552 13.4437 80.0684 13.269C79.8877 13.0882 79.7401 12.8924 79.6256 12.6815V17.9864H76.797ZM79.6256 9.49142C79.6256 9.79869 79.6768 10.0939 79.7792 10.3771C79.8877 10.6542 80.0353 10.8952 80.2221 11.1C80.4088 11.2989 80.6348 11.4615 80.8999 11.588C81.1649 11.7085 81.4571 11.7688 81.7765 11.7688C82.0837 11.7688 82.3669 11.7085 82.626 11.588C82.885 11.4615 83.1079 11.2989 83.2947 11.1C83.4815 10.8952 83.6261 10.6542 83.7285 10.3771C83.8369 10.0999 83.8912 9.80471 83.8912 9.49142C83.8912 9.18416 83.8369 8.89196 83.7285 8.61482C83.6261 8.33767 83.4815 8.09668 83.2947 7.89184C83.1079 7.687 82.885 7.52433 82.626 7.40383C82.3669 7.28334 82.0837 7.22309 81.7765 7.22309C81.4571 7.22309 81.1649 7.28334 80.8999 7.40383C80.6348 7.52433 80.4088 7.687 80.2221 7.89184C80.0353 8.09668 79.8877 8.33767 79.7792 8.61482C79.6768 8.89196 79.6256 9.18416 79.6256 9.49142Z" fill="#FAFAFA"/>
<path d="M86.6779 7.14175V5.03609H88.0786V2.3882H90.8982V5.03609H92.9316V7.14175H90.8982V10.3319C90.8982 10.6632 90.9284 10.9283 90.9886 11.1272C91.0489 11.3199 91.1332 11.4706 91.2416 11.579C91.3561 11.6814 91.4856 11.7537 91.6302 11.7959C91.7809 11.8321 91.9435 11.8501 92.1183 11.8501C92.293 11.8501 92.4707 11.8471 92.6514 11.8411C92.8382 11.829 92.9311 11.82 93.0696 11.7959C92.8845 12.6416 92.8456 13.111 92.9374 13.9558C92.7266 13.9919 92.6635 14.0251 92.3442 14.0552C92.0309 14.0853 91.6664 14.1004 91.2507 14.1004C90.9193 14.1004 90.5669 14.0763 90.1933 14.0281C89.8198 13.9799 89.4764 13.8534 89.1631 13.6485C88.8498 13.4437 88.5907 13.1304 88.3859 12.7087C88.1811 12.2809 88.0786 11.6965 88.0786 10.9554V7.14175H86.6779Z" fill="#FAFAFA"/>
<path d="M93.2602 13.9558C93.2602 12.9075 93.3415 12.0248 93.5042 11.3079C93.6729 10.5909 93.9109 9.98847 94.2181 9.50046C94.5314 9.00643 94.8929 8.5877 95.3026 8.24429C95.7183 7.89485 96.1792 7.5665 96.6853 7.25924C97.0648 7.03632 97.4173 6.82244 97.7426 6.6176C98.074 6.41275 98.3632 6.20791 98.6102 6.00307C98.8572 5.7922 99.05 5.56025 99.1886 5.30721C99.3332 5.05416 99.4055 4.76497 99.4055 4.43964C99.4055 3.9215 99.2639 3.55098 98.9807 3.32806C98.6976 3.09912 98.3451 2.98465 97.9234 2.98465C97.4534 2.98465 97.0618 3.12924 96.7485 3.41843C96.4353 3.70762 96.2786 4.18961 96.2786 4.86438H93.2963C93.2963 4.27395 93.3988 3.7257 93.6036 3.21962C93.8084 2.71353 94.1067 2.27674 94.4983 1.90922C94.8959 1.53569 95.3779 1.2465 95.9442 1.04166C96.5106 0.830788 97.1643 0.725354 97.9053 0.725354C98.4957 0.725354 99.059 0.803676 99.5953 0.960321C100.137 1.11094 100.61 1.34289 101.014 1.65618C101.424 1.96947 101.749 2.37615 101.99 2.8762C102.231 3.37626 102.352 3.96669 102.352 4.64749C102.352 5.18972 102.234 5.68376 101.999 6.12959C101.764 6.5694 101.475 6.96402 101.132 7.31346C100.794 7.65687 100.427 7.96113 100.029 8.22622C99.6374 8.49131 99.282 8.71724 98.9627 8.90401C98.5168 9.19922 98.1493 9.45527 97.8601 9.67217C97.5709 9.88906 97.339 10.0909 97.1643 10.2777C96.9956 10.4584 96.8751 10.6482 96.8028 10.847C96.7365 11.0458 96.7034 11.2748 96.7034 11.5338H102.252V13.9558H93.2602Z" fill="#FAFAFA"/>
<path d="M102.852 9.60891V5.35239C102.852 4.72581 102.966 4.13538 103.195 3.5811C103.424 3.0208 103.75 2.52978 104.171 2.10804C104.599 1.68028 105.117 1.34289 105.726 1.09588C106.34 0.848862 107.024 0.725354 107.777 0.725354C108.53 0.725354 109.211 0.848862 109.82 1.09588C110.428 1.34289 110.949 1.68028 111.383 2.10804C111.817 2.52978 112.151 3.01779 112.386 3.57207C112.621 4.12635 112.739 4.71979 112.739 5.35239V9.60891C112.739 10.2355 112.621 10.8259 112.386 11.3802C112.151 11.9345 111.817 12.4255 111.383 12.8533C110.949 13.281 110.428 13.6184 109.82 13.8654C109.211 14.1124 108.53 14.2359 107.777 14.2359C107.024 14.2359 106.34 14.1124 105.726 13.8654C105.117 13.6184 104.599 13.281 104.171 12.8533C103.75 12.4255 103.424 11.9345 103.195 11.3802C102.966 10.8259 102.852 10.2355 102.852 9.60891ZM105.852 9.60891C105.852 9.89207 105.894 10.1602 105.979 10.4132C106.063 10.6663 106.19 10.8892 106.358 11.082C106.527 11.2687 106.732 11.4194 106.973 11.5338C107.214 11.6423 107.482 11.6965 107.777 11.6965C108.072 11.6965 108.343 11.6423 108.591 11.5338C108.838 11.4194 109.042 11.2687 109.205 11.082C109.374 10.8892 109.503 10.6663 109.594 10.4132C109.69 10.1602 109.738 9.89207 109.738 9.60891V5.35239C109.738 5.06923 109.69 4.80112 109.594 4.54808C109.503 4.29504 109.374 4.07212 109.205 3.87933C109.042 3.68654 108.838 3.53592 108.591 3.42747C108.343 3.313 108.072 3.25577 107.777 3.25577C107.482 3.25577 107.214 3.313 106.973 3.42747C106.732 3.53592 106.527 3.68654 106.358 3.87933C106.19 4.07212 106.063 4.29504 105.979 4.54808C105.894 4.80112 105.852 5.06923 105.852 5.35239V9.60891Z" fill="#FAFAFA"/>
<path d="M112.859 3.51784V0.996469H122.168L116.655 13.9558H113.447L117.947 3.51784H112.859Z" fill="#FAFAFA"/>
<path d="M121.674 3.51784L122.683 0.996469H130.982L125.469 13.9558H122.261L126.762 3.51784H121.674Z" fill="#FAFAFA"/>
</svg>
