<svg width="22" height="17" viewBox="0 0 22 17" fill="none" xmlns="http://www.w3.org/2000/svg">
<path d="M9.77778 1.8854C8.74274 2.45102 7.90591 2.94331 7.26727 3.36229C6.62863 3.76032 5.97898 4.29452 5.31832 4.96488C4.7017 5.59335 4.22823 6.25323 3.8979 6.94455C3.56757 7.63586 3.33634 8.52619 3.2042 9.61553H4.78979C6.15515 9.61553 7.22322 9.94023 7.99399 10.5896C8.78679 11.2181 9.18318 12.1503 9.18318 13.3863C9.18318 14.2662 8.83083 15.0937 8.12613 15.8688C7.44344 16.6229 6.4965 17 5.28528 17C3.39139 17 2.03704 16.4134 1.22222 15.2403C0.407407 14.0462 0 12.4855 0 10.5582C0 9.19655 0.308308 7.96057 0.924925 6.85028C1.54154 5.71904 2.29029 4.71349 3.17117 3.83364C4.07407 2.93284 5.03203 2.16821 6.04504 1.53974C7.05806 0.911275 7.90591 0.398028 8.58859 0L9.77778 1.8854ZM22 1.8854C20.965 2.45102 20.1281 2.94331 19.4895 3.36229C18.8509 3.76032 18.2012 4.29452 17.5405 4.96488C16.9019 5.61429 16.4174 6.28466 16.0871 6.97597C15.7788 7.64633 15.5586 8.52619 15.4264 9.61553H17.012C18.3774 9.61553 19.4454 9.94023 20.2162 10.5896C21.009 11.2181 21.4054 12.1503 21.4054 13.3863C21.4054 14.2662 21.0531 15.0937 20.3483 15.8688C19.6657 16.6229 18.7187 17 17.5075 17C15.6136 17 14.2593 16.4134 13.4444 15.2403C12.6296 14.0462 12.2222 12.4855 12.2222 10.5582C12.2222 9.19655 12.5305 7.96057 13.1471 6.85028C13.7638 5.71904 14.5125 4.71349 15.3934 3.83364C16.2963 2.93284 17.2543 2.16821 18.2673 1.53974C19.2803 0.911275 20.1281 0.398028 20.8108 0L22 1.8854Z" fill="url(#paint0_linear)"/>
<defs>
<linearGradient id="paint0_linear" x1="11" y1="-25.984" x2="11" y2="28.3628" gradientUnits="userSpaceOnUse">
<stop stop-color="#FF89DE"/>
<stop offset="0.353103" stop-color="#FF68D5"/>
<stop offset="0.703125" stop-color="#9361FF"/>
<stop offset="1" stop-color="#743AF0"/>
</linearGradient>
</defs>
</svg>
