<svg width="99" height="96" viewBox="0 0 99 96" fill="none" xmlns="http://www.w3.org/2000/svg">
<path d="M1.19761 68.6921L4.9586 93.1878C5.20699 94.8056 6.59879 96 8.2355 96C10.0665 96 11.5508 94.5157 11.5508 92.6847V78.7857C11.5508 75.385 13.6996 72.4921 16.3891 70.4109C19.6257 67.9062 21.4359 64.5647 22.4973 59.1906C23.3686 54.7792 26.9609 51.2821 31.4575 51.2821H47.8945C51.2455 51.2821 54.2912 53.2287 55.6984 56.2698L72.8754 93.3894C73.3589 94.4343 74.4054 95.1031 75.5568 95.1031C77.4709 95.1031 78.8798 93.3107 78.4277 91.4507L71.0373 61.0487C69.7901 55.9184 73.9432 51.6461 78.1583 48.4667C79.2631 47.6334 80.3124 46.5389 81.3523 45.0867C84.4704 40.7324 85.2193 35.1911 85.2193 29.8356V14.6364C85.3077 12.8623 85.5807 11.6983 86.5035 10.5911C87.5052 9.38912 89.1409 8.99865 90.7056 8.99865H92.8769C94.1763 8.99865 95.3509 10.0832 96.4598 10.7605C97.8212 11.592 98.8235 9.71161 98.8235 8.11646V5.29603C98.8235 4.69147 98.7615 4.08457 98.5824 3.50715C98.0234 1.70477 97.3021 0.907915 96.0653 0.392069C95.36 0.0979156 94.5861 0.0294405 93.8219 0.0294405H67.8931C69.5828 2.40048 71.1283 2.77209 75.0802 1.56702V23.6761C75.0802 24.7306 74.9156 25.7913 74.4458 26.7353C73.2639 29.1098 71.9774 29.7269 69.9397 29.2757C68.5582 28.9698 67.4187 28.0345 66.512 26.9482L49.2834 6.30789C41.9918 -2.11671 37.5053 -1.93275 29.2369 5.84409C28.9132 6.14859 28.6133 6.48541 28.3439 6.83885L5.17713 37.226C4.80998 37.7076 4.54753 38.2606 4.40661 38.8496L3.3562 43.2398C2.98252 44.8016 4.51911 46.139 6.01445 45.5534C7.31829 45.0429 8.72727 46.0043 8.72727 47.4045V52.3535C8.72727 53.3291 8.47046 54.2924 7.93434 55.1076C7.48273 55.7943 7.04906 56.3942 6.62088 56.9212C3.80628 60.3856 0.520216 64.2802 1.19761 68.6921Z" fill="#FAFAFA"/>
<path d="M22.6282 92.9077L18.4199 77.2509C17.5235 73.916 18.8316 70.4815 21.1775 67.9473C24.2421 64.6367 25.5521 61.3137 26.0923 56.355C26.2571 54.8418 27.499 53.6475 29.0211 53.6475H31.8236C33.6239 53.6475 34.9929 55.2952 34.5246 57.0335C32.8507 63.2471 30.2633 66.4225 25.1683 70.7367L28.9136 91.4987C29.2703 93.4762 27.7506 95.2945 25.7412 95.2945C24.2832 95.2945 23.0067 94.3158 22.6282 92.9077Z" fill="#FAFAFA"/>
<path d="M46.5205 91.83L51.7694 63.3448C52.2781 60.5842 56.0409 60.1246 57.1992 62.6816L59.2434 67.1944C60.1801 69.2624 60.261 71.6168 59.4686 73.7442L52.1521 93.385C51.7246 94.5326 50.6289 95.2937 49.4043 95.2937C47.572 95.2937 46.1885 93.632 46.5205 91.83Z" fill="#FAFAFA"/>
<path d="M20.4705 68.8239C24.0643 64.9305 25.6251 61.5454 26.0155 56.5121C26.1378 54.9338 27.4008 53.6475 28.9838 53.6475H31.7646C27.4467 63.2237 24.2013 67.5966 17.647 74.471C16.9412 72.3533 17.9998 70.5886 20.4705 68.8239Z" fill="#FAFAFA"/>
</svg>
