<svg width="795" height="141" viewBox="0 0 795 141" fill="none" xmlns="http://www.w3.org/2000/svg">
<g opacity="0.35">
<path d="M201.921 91.4358V116H198.714V91.4358H201.921ZM226.876 116H223.669L210.77 96.4403V116H207.563V91.4006H210.77L223.669 110.925V91.4006H226.876V116ZM231.321 103.7C231.321 101.304 231.861 99.154 232.942 97.2509C234.023 95.3243 235.491 93.8206 237.347 92.7398C239.227 91.659 241.306 91.1186 243.585 91.1186C246.264 91.1186 248.602 91.7647 250.599 93.057C252.596 94.3492 254.052 96.1818 254.969 98.5548H251.127C250.446 97.0747 249.459 95.9351 248.167 95.1363C246.898 94.3375 245.371 93.938 243.585 93.938C241.87 93.938 240.331 94.3375 238.969 95.1363C237.606 95.9351 236.537 97.0747 235.762 98.5548C234.986 100.012 234.599 101.727 234.599 103.7C234.599 105.65 234.986 107.366 235.762 108.846C236.537 110.302 237.606 111.43 238.969 112.229C240.331 113.028 241.87 113.427 243.585 113.427C245.371 113.427 246.898 113.04 248.167 112.264C249.459 111.465 250.446 110.326 251.127 108.846H254.969C254.052 111.195 252.596 113.016 250.599 114.308C248.602 115.577 246.264 116.211 243.585 116.211C241.306 116.211 239.227 115.683 237.347 114.626C235.491 113.545 234.023 112.053 232.942 110.15C231.861 108.247 231.321 106.097 231.321 103.7ZM271.056 116.247C268.777 116.247 266.697 115.718 264.818 114.661C262.938 113.58 261.446 112.088 260.342 110.185C259.261 108.258 258.721 106.097 258.721 103.7C258.721 101.304 259.261 99.154 260.342 97.2509C261.446 95.3243 262.938 93.8323 264.818 92.775C266.697 91.6943 268.777 91.1539 271.056 91.1539C273.358 91.1539 275.449 91.6943 277.329 92.775C279.209 93.8323 280.689 95.3125 281.77 97.2156C282.85 99.1187 283.391 101.28 283.391 103.7C283.391 106.12 282.85 108.282 281.77 110.185C280.689 112.088 279.209 113.58 277.329 114.661C275.449 115.718 273.358 116.247 271.056 116.247ZM271.056 113.463C272.771 113.463 274.31 113.063 275.673 112.264C277.059 111.465 278.14 110.326 278.915 108.846C279.714 107.366 280.113 105.65 280.113 103.7C280.113 101.727 279.714 100.012 278.915 98.5548C278.14 97.0747 277.07 95.9351 275.708 95.1363C274.345 94.3375 272.794 93.938 271.056 93.938C269.317 93.938 267.766 94.3375 266.404 95.1363C265.041 95.9351 263.96 97.0747 263.161 98.5548C262.386 100.012 261.998 101.727 261.998 103.7C261.998 105.65 262.386 107.366 263.161 108.846C263.96 110.326 265.041 111.465 266.404 112.264C267.79 113.063 269.341 113.463 271.056 113.463ZM312.717 91.612V116H309.51V97.8147L301.404 116H299.149L291.008 97.7795V116H287.801V91.612H291.254L300.277 111.771L309.299 91.612H312.717ZM321.54 91.4358V116H318.332V91.4358H321.54ZM346.495 116H343.288L330.389 96.4403V116H327.182V91.4006H330.389L343.288 110.925V91.4006H346.495V116ZM370.746 98.5548C370.065 97.1216 369.078 96.0174 367.786 95.242C366.494 94.4432 364.99 94.0438 363.275 94.0438C361.56 94.0438 360.009 94.4432 358.623 95.242C357.26 96.0174 356.179 97.1451 355.38 98.6253C354.605 100.082 354.217 101.774 354.217 103.7C354.217 105.627 354.605 107.319 355.38 108.775C356.179 110.232 357.26 111.36 358.623 112.159C360.009 112.934 361.56 113.322 363.275 113.322C365.671 113.322 367.645 112.605 369.195 111.172C370.746 109.739 371.651 107.8 371.909 105.357H362.112V102.749H375.328V105.216C375.14 107.236 374.505 109.092 373.425 110.784C372.344 112.452 370.922 113.78 369.16 114.767C367.398 115.73 365.436 116.211 363.275 116.211C360.996 116.211 358.916 115.683 357.037 114.626C355.157 113.545 353.665 112.053 352.561 110.15C351.48 108.247 350.94 106.097 350.94 103.7C350.94 101.304 351.48 99.154 352.561 97.2509C353.665 95.3243 355.157 93.8323 357.037 92.775C358.916 91.6943 360.996 91.1539 363.275 91.1539C365.883 91.1539 368.185 91.8 370.182 93.0922C372.203 94.3845 373.671 96.2053 374.588 98.5548H370.746ZM403.202 91.4358V94.0438H392.523V102.326H401.193V104.934H392.523V116H389.316V91.4358H403.202ZM420.186 116L414.335 105.956H410.459V116H407.252V91.4358H415.181C417.037 91.4358 418.6 91.753 419.868 92.3874C421.161 93.0217 422.124 93.8793 422.758 94.9601C423.393 96.0409 423.71 97.2744 423.71 98.6606C423.71 100.352 423.217 101.844 422.23 103.136C421.266 104.429 419.81 105.286 417.86 105.709L424.027 116H420.186ZM410.459 103.383H415.181C416.92 103.383 418.224 102.96 419.093 102.114C419.962 101.245 420.397 100.094 420.397 98.6606C420.397 97.2039 419.962 96.0761 419.093 95.2773C418.247 94.4784 416.943 94.079 415.181 94.079H410.459V103.383ZM440.006 116.247C437.727 116.247 435.648 115.718 433.768 114.661C431.889 113.58 430.397 112.088 429.292 110.185C428.212 108.258 427.671 106.097 427.671 103.7C427.671 101.304 428.212 99.154 429.292 97.2509C430.397 95.3243 431.889 93.8323 433.768 92.775C435.648 91.6943 437.727 91.1539 440.006 91.1539C442.309 91.1539 444.4 91.6943 446.279 92.775C448.159 93.8323 449.639 95.3125 450.72 97.2156C451.801 99.1187 452.341 101.28 452.341 103.7C452.341 106.12 451.801 108.282 450.72 110.185C449.639 112.088 448.159 113.58 446.279 114.661C444.4 115.718 442.309 116.247 440.006 116.247ZM440.006 113.463C441.721 113.463 443.26 113.063 444.623 112.264C446.009 111.465 447.09 110.326 447.865 108.846C448.664 107.366 449.063 105.65 449.063 103.7C449.063 101.727 448.664 100.012 447.865 98.5548C447.09 97.0747 446.021 95.9351 444.658 95.1363C443.295 94.3375 441.745 93.938 440.006 93.938C438.267 93.938 436.717 94.3375 435.354 95.1363C433.991 95.9351 432.911 97.0747 432.112 98.5548C431.336 100.012 430.949 101.727 430.949 103.7C430.949 105.65 431.336 107.366 432.112 108.846C432.911 110.326 433.991 111.465 435.354 112.264C436.74 113.063 438.291 113.463 440.006 113.463ZM481.668 91.612V116H478.461V97.8147L470.355 116H468.099L459.958 97.7795V116H456.751V91.612H460.205L469.227 111.771L478.249 91.612H481.668ZM511.974 91.4358V94.0438H505.278V116H502.071V94.0438H495.339V91.4358H511.974ZM535.023 91.4358V116H531.816V104.863H519.305V116H516.098V91.4358H519.305V102.22H531.816V91.4358H535.023ZM543.883 94.0438V102.255H552.834V104.899H543.883V113.357H553.892V116H540.676V91.4006H553.892V94.0438H543.883ZM582.378 91.4358V94.0438H571.7V102.326H580.369V104.934H571.7V116H568.493V91.4358H582.378ZM589.564 91.4358V106.978C589.564 109.163 590.093 110.784 591.15 111.841C592.231 112.899 593.723 113.427 595.626 113.427C597.506 113.427 598.974 112.899 600.031 111.841C601.112 110.784 601.653 109.163 601.653 106.978V91.4358H604.86V106.943C604.86 108.987 604.449 110.714 603.626 112.123C602.804 113.51 601.688 114.543 600.278 115.225C598.892 115.906 597.33 116.247 595.591 116.247C593.852 116.247 592.278 115.906 590.868 115.225C589.482 114.543 588.378 113.51 587.556 112.123C586.757 110.714 586.357 108.987 586.357 106.943V91.4358H589.564ZM625.505 91.4358V94.0438H618.809V116H615.602V94.0438H608.871V91.4358H625.505ZM632.766 91.4358V106.978C632.766 109.163 633.294 110.784 634.352 111.841C635.432 112.899 636.924 113.427 638.827 113.427C640.707 113.427 642.175 112.899 643.233 111.841C644.314 110.784 644.854 109.163 644.854 106.978V91.4358H648.061V106.943C648.061 108.987 647.65 110.714 646.828 112.123C646.005 113.51 644.889 114.543 643.479 115.225C642.093 115.906 640.531 116.247 638.792 116.247C637.054 116.247 635.479 115.906 634.07 115.225C632.683 114.543 631.579 113.51 630.757 112.123C629.958 110.714 629.559 108.987 629.559 106.943V91.4358H632.766ZM666.521 116L660.671 105.956H656.794V116H653.587V91.4358H661.517C663.373 91.4358 664.935 91.753 666.204 92.3874C667.496 93.0217 668.46 93.8793 669.094 94.9601C669.728 96.0409 670.046 97.2744 670.046 98.6606C670.046 100.352 669.552 101.844 668.565 103.136C667.602 104.429 666.145 105.286 664.195 105.709L670.363 116H666.521ZM656.794 103.383H661.517C663.255 103.383 664.559 102.96 665.429 102.114C666.298 101.245 666.733 100.094 666.733 98.6606C666.733 97.2039 666.298 96.0761 665.429 95.2773C664.583 94.4784 663.279 94.079 661.517 94.079H656.794V103.383ZM678.412 94.0438V102.255H687.364V104.899H678.412V113.357H688.421V116H675.205V91.4006H688.421V94.0438H678.412Z" fill="#FAFAFA"/>
</g>
<path d="M200.684 56V6.98633H230.591V16.1123H212.031V27.2207H230.591V36.1074H212.031V46.9082H230.591V56H200.684Z" fill="#FAFAFA"/>
<path d="M233.303 39.1152C233.303 36.791 233.679 34.5579 234.431 32.416C235.206 30.2741 236.357 28.3828 237.883 26.7422C239.433 25.1016 241.336 23.7913 243.591 22.8115C245.87 21.8317 248.479 21.3418 251.419 21.3418C254.267 21.3418 256.739 21.7406 258.836 22.5381C260.932 23.3356 262.686 24.3952 264.099 25.7168C265.535 27.0156 266.64 28.5195 267.415 30.2285C268.189 31.9147 268.668 33.6693 268.85 35.4922H258.152C257.924 33.9883 257.297 32.7692 256.272 31.835C255.269 30.9007 253.674 30.4336 251.487 30.4336C250.234 30.4336 249.129 30.6729 248.171 31.1514C247.214 31.6071 246.428 32.2337 245.813 33.0312C245.221 33.8288 244.765 34.7516 244.446 35.7998C244.15 36.848 244.002 37.9531 244.002 39.1152C244.002 40.2773 244.15 41.3939 244.446 42.4648C244.765 43.513 245.232 44.4359 245.847 45.2334C246.485 46.0081 247.306 46.6348 248.308 47.1133C249.311 47.569 250.507 47.7969 251.897 47.7969C253.766 47.7969 255.167 47.4209 256.101 46.6689C257.035 45.8942 257.742 44.7777 258.22 43.3193H268.919C268.645 45.2334 268.087 47.0221 267.244 48.6855C266.401 50.349 265.25 51.7845 263.792 52.9922C262.356 54.1999 260.601 55.1569 258.528 55.8633C256.454 56.5697 254.085 56.9229 251.419 56.9229C248.479 56.9229 245.87 56.4329 243.591 55.4531C241.336 54.4733 239.433 53.1631 237.883 51.5225C236.357 49.8818 235.206 47.9906 234.431 45.8486C233.679 43.7067 233.303 41.4622 233.303 39.1152Z" fill="#FAFAFA"/>
<path d="M271.939 56V22.2646H282.295V27.1523C283.047 25.5573 284.255 24.2015 285.918 23.085C287.604 21.9684 289.644 21.4102 292.036 21.4102C294.976 21.4102 297.232 22.0026 298.804 23.1875C300.399 24.3496 301.55 25.7852 302.256 27.4941C303.145 25.7168 304.501 24.2585 306.323 23.1191C308.146 21.9798 310.311 21.4102 312.818 21.4102C315.233 21.4102 317.215 21.7975 318.765 22.5723C320.314 23.347 321.533 24.3838 322.422 25.6826C323.311 26.9587 323.903 28.4284 324.199 30.0918C324.496 31.7324 324.644 33.4414 324.644 35.2188V56H314.356V37.8164C314.356 35.5378 313.946 33.7604 313.125 32.4844C312.328 31.1855 311.017 30.5361 309.195 30.5361C308.397 30.5361 307.645 30.6729 306.939 30.9463C306.232 31.2197 305.617 31.6868 305.093 32.3477C304.592 32.9857 304.204 33.863 303.931 34.9795C303.657 36.0732 303.521 37.429 303.521 39.0469V56H293.164V37.7139C293.164 35.4352 292.765 33.6693 291.968 32.416C291.17 31.1628 289.883 30.5361 288.106 30.5361C287.263 30.5361 286.488 30.6729 285.781 30.9463C285.098 31.2197 284.494 31.6982 283.97 32.3818C283.469 33.0426 283.058 33.9427 282.739 35.082C282.443 36.1986 282.295 37.5999 282.295 39.2861V56H271.939Z" fill="#FAFAFA"/>
<path d="M327.459 39.1152C327.459 36.5859 327.846 34.2389 328.621 32.0742C329.418 29.9095 330.535 28.0524 331.971 26.5029C333.429 24.9307 335.172 23.6888 337.2 22.7773C339.228 21.8659 341.461 21.4102 343.899 21.4102C344.97 21.4102 346.041 21.5697 347.112 21.8887C348.183 22.1849 349.174 22.5951 350.086 23.1191C350.997 23.6204 351.806 24.2243 352.512 24.9307C353.219 25.6143 353.777 26.332 354.187 27.084V22.2646H364.886V56H354.187V51.249C353.777 52.0466 353.219 52.7871 352.512 53.4707C351.806 54.1315 350.997 54.7126 350.086 55.2139C349.174 55.6924 348.183 56.0798 347.112 56.376C346.041 56.695 344.97 56.8545 343.899 56.8545C341.484 56.8545 339.251 56.3988 337.2 55.4873C335.172 54.5758 333.429 53.334 331.971 51.7617C330.535 50.1895 329.418 48.321 328.621 46.1562C327.846 43.9915 327.459 41.6445 327.459 39.1152ZM338.089 39.1152C338.089 40.2773 338.282 41.3939 338.67 42.4648C339.08 43.513 339.627 44.4245 340.31 45.1992C341.017 45.9512 341.86 46.5664 342.84 47.0449C343.819 47.5007 344.913 47.7285 346.121 47.7285C347.329 47.7285 348.422 47.5007 349.402 47.0449C350.405 46.5664 351.248 45.9512 351.931 45.1992C352.638 44.4245 353.185 43.513 353.572 42.4648C353.982 41.4167 354.187 40.3001 354.187 39.1152C354.187 37.9531 353.982 36.8594 353.572 35.834C353.185 34.8086 352.638 33.8971 351.931 33.0996C351.248 32.3021 350.416 31.6755 349.436 31.2197C348.457 30.764 347.351 30.5361 346.121 30.5361C344.913 30.5361 343.819 30.764 342.84 31.2197C341.86 31.6755 341.017 32.3021 340.31 33.0996C339.627 33.8971 339.08 34.8086 338.67 35.834C338.282 36.8594 338.089 37.9531 338.089 39.1152Z" fill="#FAFAFA"/>
<path d="M368.247 39.7646H379.595C379.595 42.4307 380.313 44.5156 381.748 46.0195C383.207 47.5007 385.098 48.2412 387.422 48.2412C389.245 48.2412 390.772 47.7171 392.002 46.6689C393.233 45.6208 393.848 44.2308 393.848 42.499C393.848 41.5192 393.654 40.6875 393.267 40.0039C392.88 39.3203 392.344 38.7279 391.661 38.2266C390.977 37.7025 390.168 37.2467 389.234 36.8594C388.3 36.4492 387.297 36.0391 386.226 35.6289C383.993 34.7858 381.862 33.9427 379.834 33.0996C377.806 32.2565 376.04 31.2425 374.537 30.0576C373.055 28.8727 371.871 27.4486 370.982 25.7852C370.093 24.099 369.649 22.014 369.649 19.5303C369.649 17.2972 370.127 15.3148 371.084 13.583C372.041 11.8512 373.306 10.4043 374.878 9.24219C376.473 8.08008 378.308 7.21419 380.381 6.64453C382.455 6.05208 384.62 5.75586 386.875 5.75586C389.769 5.75586 392.31 6.17741 394.497 7.02051C396.685 7.84082 398.496 8.98014 399.932 10.4385C401.39 11.874 402.484 13.526 403.213 15.3945C403.942 17.263 404.307 19.2454 404.307 21.3418H392.959C392.959 19.1543 392.435 17.4339 391.387 16.1807C390.339 14.9046 388.835 14.2666 386.875 14.2666C385.235 14.2666 383.833 14.6882 382.671 15.5312C381.509 16.3743 380.928 17.639 380.928 19.3252C380.928 20.9658 381.566 22.2646 382.842 23.2217C384.118 24.1559 385.804 24.999 387.901 25.751C389.906 26.4574 391.934 27.2207 393.985 28.041C396.058 28.8613 397.904 29.8639 399.522 31.0488C401.163 32.2337 402.507 33.6807 403.555 35.3896C404.603 37.0986 405.127 39.1608 405.127 41.5762C405.127 44.1055 404.672 46.3499 403.76 48.3096C402.849 50.2692 401.573 51.9098 399.932 53.2314C398.314 54.5531 396.377 55.5557 394.121 56.2393C391.888 56.9229 389.416 57.2646 386.704 57.2646C384.084 57.2646 381.646 56.8773 379.39 56.1025C377.134 55.3278 375.175 54.1999 373.511 52.7188C371.871 51.2148 370.583 49.3805 369.649 47.2158C368.715 45.0511 368.247 42.5674 368.247 39.7646Z" fill="#FAFAFA"/>
<path d="M406.507 39.1152C406.507 36.791 406.883 34.5579 407.635 32.416C408.41 30.2741 409.56 28.3828 411.087 26.7422C412.636 25.1016 414.539 23.7913 416.795 22.8115C419.074 21.8317 421.683 21.3418 424.622 21.3418C427.47 21.3418 429.943 21.7406 432.039 22.5381C434.135 23.3356 435.89 24.3952 437.303 25.7168C438.738 27.0156 439.843 28.5195 440.618 30.2285C441.393 31.9147 441.871 33.6693 442.054 35.4922H431.355C431.128 33.9883 430.501 32.7692 429.476 31.835C428.473 30.9007 426.878 30.4336 424.69 30.4336C423.437 30.4336 422.332 30.6729 421.375 31.1514C420.418 31.6071 419.632 32.2337 419.017 33.0312C418.424 33.8288 417.968 34.7516 417.649 35.7998C417.353 36.848 417.205 37.9531 417.205 39.1152C417.205 40.2773 417.353 41.3939 417.649 42.4648C417.968 43.513 418.436 44.4359 419.051 45.2334C419.689 46.0081 420.509 46.6348 421.512 47.1133C422.514 47.569 423.711 47.7969 425.101 47.7969C426.969 47.7969 428.37 47.4209 429.305 46.6689C430.239 45.8942 430.945 44.7777 431.424 43.3193H442.122C441.849 45.2334 441.29 47.0221 440.447 48.6855C439.604 50.349 438.453 51.7845 436.995 52.9922C435.56 54.1999 433.805 55.1569 431.731 55.8633C429.658 56.5697 427.288 56.9229 424.622 56.9229C421.683 56.9229 419.074 56.4329 416.795 55.4531C414.539 54.4733 412.636 53.1631 411.087 51.5225C409.56 49.8818 408.41 47.9906 407.635 45.8486C406.883 43.7067 406.507 41.4622 406.507 39.1152Z" fill="#FAFAFA"/>
<path d="M445.142 56V22.2646H455.84V27.7334C456.638 26.1383 457.96 24.737 459.805 23.5293C461.651 22.2988 463.77 21.6836 466.163 21.6836C467.416 21.6836 468.487 21.8773 469.376 22.2646V32.0059C468.624 31.8236 467.986 31.6982 467.462 31.6299C466.96 31.5387 466.334 31.4932 465.582 31.4932C462.642 31.4932 460.284 32.359 458.506 34.0908C456.729 35.8226 455.84 38.7393 455.84 42.8408V56H445.142Z" fill="#FAFAFA"/>
<path d="M468.944 11.0537C468.944 9.13965 469.593 7.5332 470.892 6.23438C472.213 4.93555 473.854 4.28613 475.814 4.28613C476.793 4.28613 477.705 4.45703 478.548 4.79883C479.391 5.14062 480.12 5.61914 480.736 6.23438C481.374 6.82682 481.863 7.5446 482.205 8.3877C482.57 9.23079 482.752 10.1195 482.752 11.0537C482.752 11.988 482.57 12.8652 482.205 13.6855C481.863 14.5059 481.374 15.235 480.736 15.873C480.12 16.4883 479.391 16.9782 478.548 17.3428C477.705 17.6846 476.793 17.8555 475.814 17.8555C474.834 17.8555 473.934 17.6846 473.113 17.3428C472.293 16.9782 471.564 16.4883 470.926 15.873C470.311 15.235 469.821 14.5059 469.456 13.6855C469.114 12.8652 468.944 11.988 468.944 11.0537ZM470.482 56V22.2646H481.18V56H470.482Z" fill="#FAFAFA"/>
<path d="M486.456 71.2441V22.2646H497.154V27.084C497.564 26.332 498.123 25.6143 498.829 24.9307C499.535 24.2243 500.356 23.6204 501.29 23.1191C502.224 22.5951 503.215 22.1849 504.263 21.8887C505.312 21.5697 506.405 21.4102 507.545 21.4102C509.96 21.4102 512.182 21.8659 514.21 22.7773C516.238 23.6888 517.97 24.9307 519.405 26.5029C520.863 28.0524 521.991 29.9209 522.789 32.1084C523.586 34.2731 523.985 36.6087 523.985 39.1152C523.985 41.6445 523.586 43.9915 522.789 46.1562C521.991 48.321 520.863 50.1895 519.405 51.7617C517.97 53.334 516.238 54.5758 514.21 55.4873C512.182 56.3988 509.96 56.8545 507.545 56.8545C506.428 56.8545 505.334 56.695 504.263 56.376C503.215 56.0798 502.224 55.681 501.29 55.1797C500.356 54.6556 499.535 54.0632 498.829 53.4023C498.145 52.7188 497.587 51.9782 497.154 51.1807V71.2441H486.456ZM497.154 39.1152C497.154 40.2773 497.348 41.3939 497.735 42.4648C498.145 43.513 498.704 44.4245 499.41 45.1992C500.116 45.9512 500.971 46.5664 501.973 47.0449C502.976 47.5007 504.081 47.7285 505.289 47.7285C506.451 47.7285 507.522 47.5007 508.502 47.0449C509.482 46.5664 510.325 45.9512 511.031 45.1992C511.737 44.4245 512.284 43.513 512.672 42.4648C513.082 41.4167 513.287 40.3001 513.287 39.1152C513.287 37.9531 513.082 36.848 512.672 35.7998C512.284 34.7516 511.737 33.8402 511.031 33.0654C510.325 32.2907 509.482 31.6755 508.502 31.2197C507.522 30.764 506.451 30.5361 505.289 30.5361C504.081 30.5361 502.976 30.764 501.973 31.2197C500.971 31.6755 500.116 32.2907 499.41 33.0654C498.704 33.8402 498.145 34.7516 497.735 35.7998C497.348 36.848 497.154 37.9531 497.154 39.1152Z" fill="#FAFAFA"/>
<path d="M523.827 30.2285V22.2646H529.124V12.25H539.788V22.2646H547.479V30.2285H539.788V42.2939C539.788 43.5472 539.902 44.5498 540.13 45.3018C540.358 46.0309 540.677 46.6006 541.087 47.0107C541.52 47.3981 542.01 47.6716 542.557 47.8311C543.127 47.9678 543.742 48.0361 544.403 48.0361C545.064 48.0361 545.736 48.0247 546.419 48.002C547.126 47.9564 547.477 47.9222 548.001 47.8311C547.301 51.0295 547.153 52.805 547.501 56C546.703 56.1367 546.465 56.262 545.257 56.376C544.072 56.4899 542.694 56.5469 541.121 56.5469C539.868 56.5469 538.535 56.4557 537.122 56.2734C535.71 56.0911 534.411 55.6126 533.226 54.8379C532.041 54.0632 531.061 52.8783 530.287 51.2832C529.512 49.6654 529.124 47.4551 529.124 44.6523V30.2285H523.827Z" fill="#FAFAFA"/>
<path d="M548.722 56C548.722 52.0352 549.029 48.6969 549.645 45.9854C550.283 43.2738 551.183 40.9951 552.345 39.1494C553.53 37.2809 554.897 35.6973 556.446 34.3984C558.019 33.0768 559.762 31.835 561.676 30.6729C563.111 29.8298 564.444 29.0208 565.675 28.2461C566.928 27.4714 568.022 26.6966 568.956 25.9219C569.89 25.1243 570.619 24.2471 571.144 23.29C571.69 22.333 571.964 21.2393 571.964 20.0088C571.964 18.0492 571.428 16.6478 570.357 15.8047C569.286 14.9388 567.953 14.5059 566.358 14.5059C564.581 14.5059 563.1 15.0527 561.915 16.1465C560.73 17.2402 560.138 19.0632 560.138 21.6152H548.858C548.858 19.3822 549.246 17.3086 550.021 15.3945C550.795 13.4805 551.923 11.8285 553.404 10.4385C554.908 9.02572 556.731 7.93197 558.873 7.15723C561.015 6.3597 563.487 5.96094 566.29 5.96094C568.523 5.96094 570.654 6.25716 572.682 6.84961C574.732 7.41927 576.521 8.29655 578.048 9.48145C579.597 10.6663 580.828 12.2044 581.739 14.0957C582.651 15.987 583.106 18.2201 583.106 20.7949C583.106 22.8457 582.662 24.7142 581.773 26.4004C580.885 28.0638 579.791 29.5563 578.492 30.8779C577.216 32.1768 575.826 33.3275 574.322 34.3301C572.841 35.3327 571.497 36.1872 570.289 36.8936C568.603 38.0101 567.213 38.9785 566.119 39.7988C565.025 40.6191 564.148 41.3825 563.487 42.0889C562.849 42.7725 562.394 43.4902 562.12 44.2422C561.869 44.9941 561.744 45.86 561.744 46.8398H582.73V56H548.722Z" fill="#FAFAFA"/>
<path d="M584.999 39.5596V23.4609C584.999 21.0911 585.432 18.8581 586.297 16.7617C587.163 14.6426 588.394 12.7855 589.989 11.1904C591.607 9.57259 593.566 8.29655 595.868 7.3623C598.192 6.42806 600.778 5.96094 603.627 5.96094C606.475 5.96094 609.05 6.42806 611.351 7.3623C613.653 8.29655 615.624 9.57259 617.264 11.1904C618.905 12.7855 620.17 14.6312 621.058 16.7275C621.947 18.8239 622.391 21.0684 622.391 23.4609V39.5596C622.391 41.9294 621.947 44.1624 621.058 46.2588C620.17 48.3551 618.905 50.2122 617.264 51.8301C615.624 53.4479 613.653 54.724 611.351 55.6582C609.05 56.5924 606.475 57.0596 603.627 57.0596C600.778 57.0596 598.192 56.5924 595.868 55.6582C593.566 54.724 591.607 53.4479 589.989 51.8301C588.394 50.2122 587.163 48.3551 586.297 46.2588C585.432 44.1624 584.999 41.9294 584.999 39.5596ZM596.346 39.5596C596.346 40.6305 596.506 41.6445 596.825 42.6016C597.144 43.5586 597.622 44.4017 598.26 45.1309C598.898 45.8372 599.673 46.4069 600.585 46.8398C601.496 47.25 602.51 47.4551 603.627 47.4551C604.743 47.4551 605.768 47.25 606.703 46.8398C607.637 46.4069 608.412 45.8372 609.027 45.1309C609.665 44.4017 610.155 43.5586 610.497 42.6016C610.861 41.6445 611.044 40.6305 611.044 39.5596V23.4609C611.044 22.39 610.861 21.376 610.497 20.4189C610.155 19.4619 609.665 18.6188 609.027 17.8896C608.412 17.1605 607.637 16.5908 606.703 16.1807C605.768 15.7477 604.743 15.5312 603.627 15.5312C602.51 15.5312 601.496 15.7477 600.585 16.1807C599.673 16.5908 598.898 17.1605 598.26 17.8896C597.622 18.6188 597.144 19.4619 596.825 20.4189C596.506 21.376 596.346 22.39 596.346 23.4609V39.5596Z" fill="#FAFAFA"/>
<path d="M622.848 16.5225V6.98633H658.053L637.203 56H625.07L642.091 16.5225H622.848Z" fill="#FAFAFA"/>
<path d="M656.185 16.5225L660.001 6.98633H691.39L670.541 56H658.407L675.429 16.5225H656.185Z" fill="#FAFAFA"/>
<g filter="url(#filter0_d)">
<path d="M31.2212 83.2232L74.9991 7.42198C77.1731 3.65777 82.6072 3.65989 84.7782 7.4258L95.8172 26.5743C96.7812 28.2464 96.8241 30.2952 95.9308 32.0062L66.3543 88.659C65.3812 90.5229 63.4528 91.6916 61.3501 91.6916H36.1097C31.7637 91.6916 29.0477 86.9866 31.2212 83.2232Z" fill="url(#paint0_linear)"/>
<path d="M149.937 120.321L105.736 43.7508C103.508 39.8913 97.8968 40.014 95.8397 43.9671L84.0099 66.6997C83.1194 68.4109 83.1644 70.4585 84.1292 72.129L115.224 125.966C116.233 127.713 118.096 128.788 120.113 128.788H145.048C149.393 128.788 152.109 124.084 149.937 120.321Z" fill="url(#paint1_linear)"/>
<path d="M14.554 128.91L100.803 128.91C105.169 128.91 107.882 124.166 105.669 120.403L93.5619 99.817C92.5461 98.0898 90.6908 97.0305 88.6871 97.0336L26.4194 97.13C24.4089 97.1331 22.5519 98.2052 21.5439 99.9446L9.66974 120.434C7.48877 124.198 10.2043 128.91 14.554 128.91Z" fill="url(#paint2_linear)"/>
</g>
<defs>
<filter id="filter0_d" x="0.900391" y="0.600098" width="157.801" height="140.31" filterUnits="userSpaceOnUse" color-interpolation-filters="sRGB">
<feFlood flood-opacity="0" result="BackgroundImageFix"/>
<feColorMatrix in="SourceAlpha" type="matrix" values="0 0 0 0 0 0 0 0 0 0 0 0 0 0 0 0 0 0 127 0"/>
<feOffset dy="4"/>
<feGaussianBlur stdDeviation="4"/>
<feColorMatrix type="matrix" values="0 0 0 0 0.988235 0 0 0 0 0 0 0 0 0 0.666667 0 0 0 0.06 0"/>
<feBlend mode="normal" in2="BackgroundImageFix" result="effect1_dropShadow"/>
<feBlend mode="normal" in="SourceGraphic" in2="effect1_dropShadow" result="shape"/>
</filter>
<linearGradient id="paint0_linear" x1="79.7576" y1="-17.5861" x2="79.7576" y2="151.634" gradientUnits="userSpaceOnUse">
<stop stop-color="#FF89DE"/>
<stop offset="0.353103" stop-color="#FF68D5"/>
<stop offset="0.703125" stop-color="#9361FF"/>
<stop offset="1" stop-color="#743AF0"/>
</linearGradient>
<linearGradient id="paint1_linear" x1="79.7576" y1="-17.5861" x2="79.7576" y2="151.634" gradientUnits="userSpaceOnUse">
<stop stop-color="#FF89DE"/>
<stop offset="0.353103" stop-color="#FF68D5"/>
<stop offset="0.703125" stop-color="#9361FF"/>
<stop offset="1" stop-color="#743AF0"/>
</linearGradient>
<linearGradient id="paint2_linear" x1="79.7576" y1="-17.5861" x2="79.7576" y2="151.634" gradientUnits="userSpaceOnUse">
<stop stop-color="#FF89DE"/>
<stop offset="0.353103" stop-color="#FF68D5"/>
<stop offset="0.703125" stop-color="#9361FF"/>
<stop offset="1" stop-color="#743AF0"/>
</linearGradient>
</defs>
</svg>
