<svg width="101" height="147" viewBox="0 0 101 147" fill="none" xmlns="http://www.w3.org/2000/svg">
<path d="M5.50528 117.574C6.05357 117.132 6.40692 116.843 6.56531 116.706L7.44322 117.891L7.44128 117.892L7.43558 117.896C7.43108 117.898 7.42099 117.905 7.40684 117.913C7.39486 117.92 7.36683 117.937 7.32878 117.956L7.32694 117.957C7.3047 117.968 7.19841 118.022 7.05272 118.061C6.99284 118.078 6.78511 118.133 6.51508 118.107C6.27763 118.083 5.82869 117.966 5.50528 117.574ZM7.70643 117.694C7.71816 117.683 7.73519 117.665 7.755 117.644C20.7653 106.923 31.0129 98.1007 38.4884 91.1826C46.177 84.1913 52.6671 76.8499 57.9489 69.156C63.2829 61.3863 66.0278 53.7054 66.0278 46.1372C66.0278 40.458 64.7072 35.8143 61.8751 32.3974C58.9763 28.9001 54.6874 27.2609 49.2976 27.2609C43.7777 27.2609 39.318 29.3908 36.0802 33.6445L36.0753 33.6511C33.2194 37.4461 31.7788 42.6269 31.5875 49.0313H1.54965C1.98551 38.5935 4.32555 29.9212 8.49647 22.9484C13.0317 15.5902 18.897 10.2071 26.0954 6.74691C33.4907 3.25646 41.6842 1.5 50.7004 1.5C66.358 1.5 77.8656 5.49744 85.5038 13.2371L85.5126 13.2459C93.3409 21.0481 97.2956 31.2318 97.2956 43.9402C97.2956 57.8129 92.5574 70.7373 82.9955 82.7489C73.3326 94.7536 61.0004 106.522 45.9797 118.048L42.4741 120.738H46.8929H99.5V145.5H1.90079V122.36C3.88203 120.791 5.34917 119.624 6.30034 118.859C6.81793 118.443 7.19169 118.139 7.41317 117.954C7.503 117.879 7.62376 117.777 7.70643 117.694Z" stroke="url(#paint0_linear_1190:691)" stroke-width="3"/>
<defs>
<linearGradient id="paint0_linear_1190:691" x1="-11.4773" y1="-10.0513" x2="77.5926" y2="150.104" gradientUnits="userSpaceOnUse">
<stop stop-color="#2B2B2B"/>
<stop offset="1" stop-color="#262525" stop-opacity="0"/>
</linearGradient>
</defs>
</svg>
