<svg width="100" height="147" viewBox="0 0 100 147" fill="none" xmlns="http://www.w3.org/2000/svg">
<mask id="path-1-inside-1_1190:177" fill="white">
<path d="M1.77165 43.5339C2.29659 29.6082 6.88976 18.8712 15.5512 11.3227C24.2126 3.77424 35.958 0 50.7874 0C60.6299 0 69.0289 1.6919 75.9843 5.07571C83.0709 8.4595 88.3858 13.0797 91.9291 18.9363C95.6037 24.7928 97.441 31.3652 97.441 38.6534C97.441 47.243 95.2756 54.2709 90.9449 59.737C86.6142 65.073 81.5617 68.7171 75.7874 70.6693V71.4502C83.2677 73.923 89.1732 78.0226 93.5039 83.749C97.8346 89.4754 100 96.8287 100 105.809C100 113.878 98.0971 121.036 94.2913 127.283C90.6168 133.4 85.1706 138.215 77.9528 141.729C70.8661 145.243 62.4016 147 52.5591 147C36.811 147 24.2126 143.161 14.7638 135.482C5.44619 127.803 0.524934 116.22 0 100.733H32.6772C32.8084 106.459 34.4488 111.015 37.5984 114.398C40.748 117.652 45.3412 119.279 51.378 119.279C56.4961 119.279 60.4331 117.847 63.189 114.984C66.0761 111.991 67.5197 108.086 67.5197 103.271C67.5197 97.0239 65.4856 92.5339 61.4173 89.8008C57.4803 86.9376 51.1155 85.506 42.3228 85.506H36.0236V58.3705H42.3228C49.0158 58.3705 54.3963 57.2643 58.4646 55.0518C62.6641 52.7092 64.7638 48.6096 64.7638 42.753C64.7638 38.0677 63.4514 34.4236 60.8268 31.8207C58.2021 29.2178 54.5932 27.9163 50 27.9163C45.0131 27.9163 41.273 29.413 38.7795 32.4064C36.4173 35.3997 35.0394 39.1089 34.6457 43.5339H1.77165Z"/>
</mask>
<path d="M1.77165 43.5339L-1.22622 43.4209L-1.34356 46.5339H1.77165V43.5339ZM75.9843 5.07571L74.6718 7.77339L74.6817 7.77819L74.6916 7.78292L75.9843 5.07571ZM91.9291 18.9363L89.3624 20.4892L89.375 20.51L89.3879 20.5307L91.9291 18.9363ZM90.9449 59.737L93.2742 61.6276L93.2854 61.6139L93.2963 61.6L90.9449 59.737ZM75.7874 70.6693L74.8266 67.8273L72.7874 68.5168V70.6693H75.7874ZM75.7874 71.4502H72.7874V73.6182L74.8458 74.2986L75.7874 71.4502ZM94.2913 127.283L91.7293 125.722L91.7245 125.73L91.7197 125.738L94.2913 127.283ZM77.9528 141.729L76.6396 139.032L76.6298 139.037L76.62 139.041L77.9528 141.729ZM14.7638 135.482L12.8559 137.797L12.8638 137.804L12.8718 137.81L14.7638 135.482ZM0 100.733V97.7331H-3.10341L-2.99828 100.835L0 100.733ZM32.6772 100.733L35.6764 100.664L35.6092 97.7331H32.6772V100.733ZM37.5984 114.398L35.4025 116.442L35.4225 116.464L35.4429 116.485L37.5984 114.398ZM63.189 114.984L61.0297 112.901L61.0275 112.904L63.189 114.984ZM61.4173 89.8008L59.6528 92.227L59.698 92.2599L59.7444 92.291L61.4173 89.8008ZM36.0236 85.506H33.0236V88.506H36.0236V85.506ZM36.0236 58.3705V55.3705H33.0236V58.3705H36.0236ZM58.4646 55.0518L59.8979 57.6873L59.912 57.6796L59.9261 57.6717L58.4646 55.0518ZM38.7795 32.4064L36.4745 30.4863L36.4491 30.5168L36.4245 30.5479L38.7795 32.4064ZM34.6457 43.5339V46.5339H37.3906L37.6339 43.7997L34.6457 43.5339ZM4.76952 43.6469C5.27043 30.3587 9.61487 20.4757 17.5222 13.5844L13.5801 9.06107C4.16466 17.2667 -0.677254 28.8578 -1.22622 43.4209L4.76952 43.6469ZM17.5222 13.5844C25.4941 6.63679 36.4669 3 50.7874 3V-3C35.4491 -3 22.9311 0.911695 13.5801 9.06107L17.5222 13.5844ZM50.7874 3C60.2953 3 68.2212 4.63514 74.6718 7.77339L77.2967 2.37802C69.8366 -1.25133 60.9645 -3 50.7874 -3V3ZM74.6916 7.78292C81.3299 10.9527 86.1648 15.2042 89.3624 20.4892L94.4959 17.3833C90.6068 10.9552 84.8119 5.96635 77.2769 2.36849L74.6916 7.78292ZM89.3879 20.5307C92.7461 25.8831 94.441 31.8973 94.441 38.6534H100.441C100.441 30.8332 98.4612 23.7026 94.4704 17.3418L89.3879 20.5307ZM94.441 38.6534C94.441 46.7276 92.4141 53.0517 88.5934 57.8741L93.2963 61.6C98.1371 55.4901 100.441 47.7585 100.441 38.6534H94.441ZM88.6155 57.8465C84.5951 62.8001 79.9977 66.0791 74.8266 67.8273L76.7482 73.5113C83.1257 71.3552 88.6332 67.3459 93.2742 61.6276L88.6155 57.8465ZM72.7874 70.6693V71.4502H78.7874V70.6693H72.7874ZM74.8458 74.2986C81.8071 76.5998 87.1833 80.3648 91.1112 85.5586L95.8967 81.9394C91.1632 75.6803 84.7284 71.2462 76.729 68.6018L74.8458 74.2986ZM91.1112 85.5586C94.9581 90.6453 97 97.3155 97 105.809H103C103 96.3419 100.711 88.3056 95.8967 81.9394L91.1112 85.5586ZM97 105.809C97 113.386 95.2197 119.993 91.7293 125.722L96.8534 128.844C100.975 122.079 103 114.37 103 105.809H97ZM91.7197 125.738C88.3806 131.296 83.4026 135.739 76.6396 139.032L79.2659 144.426C86.9386 140.691 92.853 135.503 96.863 128.828L91.7197 125.738ZM76.62 139.041C70.0364 142.306 62.0497 144 52.5591 144V150C62.7535 150 71.6959 148.18 79.2855 144.417L76.62 139.041ZM52.5591 144C37.2952 144 25.4299 140.284 16.6558 133.154L12.8718 137.81C22.9953 146.037 36.3269 150 52.5591 150V144ZM16.6717 133.167C8.19584 126.182 3.50289 115.519 2.99828 100.631L-2.99828 100.835C-2.45302 116.922 2.69655 129.425 12.8559 137.797L16.6717 133.167ZM0 103.733H32.6772V97.7331H0V103.733ZM29.678 100.802C29.8218 107.08 31.6403 112.4 35.4025 116.442L39.7944 112.354C37.2573 109.629 35.795 105.839 35.6764 100.664L29.678 100.802ZM35.4429 116.485C39.3271 120.498 44.8097 122.279 51.378 122.279V116.279C45.8727 116.279 42.1689 114.807 39.7539 112.312L35.4429 116.485ZM51.378 122.279C57.0646 122.279 61.878 120.672 65.3504 117.064L61.0275 112.904C58.9882 115.022 55.9275 116.279 51.378 116.279V122.279ZM65.3483 117.067C68.8599 113.426 70.5197 108.731 70.5197 103.271H64.5197C64.5197 107.441 63.2923 110.556 61.0297 112.901L65.3483 117.067ZM70.5197 103.271C70.5197 96.3332 68.215 90.7534 63.0903 87.3106L59.7444 92.291C62.7561 94.3143 64.5197 97.7146 64.5197 103.271H70.5197ZM63.1818 87.3746C58.461 83.9413 51.3022 82.506 42.3228 82.506V88.506C50.9288 88.506 56.4996 89.9338 59.6528 92.227L63.1818 87.3746ZM42.3228 82.506H36.0236V88.506H42.3228V82.506ZM39.0236 85.506V58.3705H33.0236V85.506H39.0236ZM36.0236 61.3705H42.3228V55.3705H36.0236V61.3705ZM42.3228 61.3705C49.3081 61.3705 55.2373 60.2219 59.8979 57.6873L57.0313 52.4163C53.5554 54.3067 48.7234 55.3705 42.3228 55.3705V61.3705ZM59.9261 57.6717C65.2973 54.6755 67.7638 49.4169 67.7638 42.753H61.7638C61.7638 47.8022 60.0308 50.7429 57.0031 52.4319L59.9261 57.6717ZM67.7638 42.753C67.7638 37.493 66.2741 32.9978 62.9393 29.6906L58.7143 33.9509C60.6288 35.8495 61.7638 38.6424 61.7638 42.753H67.7638ZM62.9393 29.6906C59.6234 26.4022 55.1816 24.9163 50 24.9163V30.9163C54.0047 30.9163 56.7808 32.0334 58.7143 33.9509L62.9393 29.6906ZM50 24.9163C44.3919 24.9163 39.6903 26.6257 36.4745 30.4863L41.0846 34.3265C42.8556 32.2004 45.6343 30.9163 50 30.9163V24.9163ZM36.4245 30.5479C33.6444 34.0709 32.0942 38.3599 31.6575 43.268L37.6339 43.7997C37.9846 39.8579 39.1903 36.7286 41.1346 34.2648L36.4245 30.5479ZM34.6457 40.5339H1.77165V46.5339H34.6457V40.5339Z" fill="url(#paint0_linear_1190:177)" mask="url(#path-1-inside-1_1190:177)"/>
<defs>
<linearGradient id="paint0_linear_1190:177" x1="-11.3636" y1="-10.0513" x2="78.1718" y2="149.347" gradientUnits="userSpaceOnUse">
<stop stop-color="#2B2B2B"/>
<stop offset="1" stop-color="#262525" stop-opacity="0"/>
</linearGradient>
</defs>
</svg>
